<svg width="22" height="21" viewBox="0 0 22 21" fill="none" xmlns="http://www.w3.org/2000/svg">
<path fill-rule="evenodd" clip-rule="evenodd" d="M10.9982 16.1298C7.91519 16.1298 5.36838 13.6277 5.36838 10.5C5.36838 7.41702 7.87051 4.87021 10.9982 4.87021C14.1258 4.87021 16.628 7.41702 16.628 10.5C16.628 13.583 14.0811 16.1298 10.9982 16.1298ZM20.6046 9.20426H18.862C18.862 9.20426 18.8173 9.20426 18.8173 9.15957C18.6386 7.95319 18.1471 6.88085 17.4769 5.89787V5.85319L18.6833 4.64681C18.862 4.46809 18.9514 4.24468 18.9514 4.02128C18.9514 3.79787 18.862 3.57447 18.6833 3.39574L18.1471 2.81489C17.9684 2.63617 17.745 2.54681 17.5216 2.54681C17.2982 2.54681 17.0748 2.63617 16.896 2.81489L15.6897 4.02128H15.645C14.662 3.30638 13.545 2.85957 12.3833 2.68085C12.3833 2.68085 12.3386 2.68085 12.3386 2.63617V0.893617C12.3386 0.402128 11.9365 0 11.445 0H10.6407C10.1492 0 9.7471 0.402128 9.7471 0.893617V2.63617C9.7471 2.63617 9.7471 2.68085 9.70242 2.68085C8.49604 2.85957 7.4237 3.35106 6.44072 4.02128H6.39604L5.18966 2.81489C4.96625 2.63617 4.74285 2.54681 4.47476 2.54681C4.20668 2.54681 4.02796 2.63617 3.84923 2.81489L3.31306 3.35106C3.13434 3.52979 3.04498 3.75319 3.04498 3.9766C3.04498 4.2 3.13434 4.4234 3.31306 4.60213L4.51945 5.80851V5.85319C3.80455 6.83617 3.35774 7.95319 3.17902 9.11489C3.17902 9.11489 3.17902 9.15957 3.13434 9.15957H1.39179C0.900297 9.15957 0.498169 9.5617 0.498169 10.0532V10.8574C0.498169 11.3489 0.900297 11.7511 1.39179 11.7511H3.13434C3.13434 11.7511 3.17902 11.7511 3.17902 11.7957C3.35774 13.0021 3.84923 14.0745 4.51945 15.0574V15.1021L3.31306 16.3085C3.13434 16.4872 3.04498 16.7106 3.04498 16.934C3.04498 17.1574 3.13434 17.3808 3.31306 17.5596L3.84923 18.1851C4.02796 18.3638 4.25136 18.4532 4.47476 18.4532C4.69817 18.4532 4.92157 18.3638 5.1003 18.1851L6.30668 16.9787H6.35136C7.33434 17.6936 8.45136 18.1404 9.61306 18.3191C9.61306 18.3191 9.65774 18.3191 9.65774 18.3638V20.1064C9.65774 20.5979 10.0599 21 10.5514 21H11.3556C11.8471 21 12.2492 20.5979 12.2492 20.1064V18.3638C12.2492 18.3638 12.2492 18.3191 12.2939 18.3191C13.5003 18.1404 14.5726 17.6489 15.5556 16.9787H15.6003L16.8067 18.1851C16.9854 18.3638 17.2088 18.4532 17.4322 18.4532C17.6556 18.4532 17.879 18.3638 18.0577 18.1851L18.5939 17.6489C18.7726 17.4702 18.862 17.2468 18.862 17.0234C18.862 16.8 18.7726 16.5766 18.5939 16.3979L17.3875 15.1915V15.1468C18.1024 14.1638 18.5492 13.0468 18.728 11.8851C18.728 11.8851 18.728 11.8404 18.7726 11.8404H20.5152C21.0067 11.8404 21.4088 11.4383 21.4088 10.9468V10.1426C21.4982 9.60638 21.096 9.20426 20.6046 9.20426Z" fill="#29E259"/>
</svg>
